<?xml version="1.0" encoding="utf-8"?>
<!-- Generator: Adobe Illustrator 23.0.3, SVG Export Plug-In . SVG Version: 6.00 Build 0)  -->
<svg version="1.1" id="Layer_1" xmlns="http://www.w3.org/2000/svg" xmlns:xlink="http://www.w3.org/1999/xlink" x="0px" y="0px"
	 viewBox="0 0 526.2 532.4" style="enable-background:new 0 0 526.2 532.4;" xml:space="preserve">
<style type="text/css">
	.st0{fill:#ACACAC;}
</style>
<path class="st0" d="M87.7,5.2c15.4,6.9,22.5,13.8,29.7,29.2c16.6,35.1-1,76-37.6,86.8c-7.4,2.3-15.4,4.1-17.7,4.1
	c-2.3,0-10.2-1.8-17.7-4.1C-9.9,105.1-16,29.8,35.2,6C51.6-1.7,71.8-2,87.7,5.2z M115.9,354.3v177.9H62.1H8.3V354.4v-178h53.8h53.8
	V354.3z M292.5,202.3v25.9l13.1-14.3c24.6-26.9,61.9-39.4,108.5-36.6c65,4.1,94.7,30.2,106.5,94.5c1.3,7.4,3.1,69.1,4.1,137
	l1.5,123.6h-55.5h-55.3v-111c0-114.2-0.8-124.2-10.8-138.2c-8.5-11.8-18.7-15.6-43-15.9c-26.4,0-42.5,5.4-53.5,17.9
	c-13.3,15.4-13.8,19.5-14.8,137.5L292,532.3h-53.5H185V356.1c0-97,0.8-177.1,1.8-177.9c0.8-1,25.1-1.8,53.8-1.8h52L292.5,202.3
	L292.5,202.3z"/>
</svg>
